<?xml version="1.0" encoding="UTF-8" standalone="no"?>
<!-- Created with Inkscape (http://www.inkscape.org/) -->

<svg
   width="210mm"
   height="297mm"
   viewBox="0 0 210 297"
   version="1.1"
   id="svg5"
   inkscape:version="1.1.1 (3bf5ae0d25, 2021-09-20)"
   sodipodi:docname="html-tag-parts.svg"
   xmlns:inkscape="http://www.inkscape.org/namespaces/inkscape"
   xmlns:sodipodi="http://sodipodi.sourceforge.net/DTD/sodipodi-0.dtd"
   xmlns="http://www.w3.org/2000/svg"
   xmlns:svg="http://www.w3.org/2000/svg">
  <sodipodi:namedview
     id="namedview7"
     pagecolor="#ffffff"
     bordercolor="#666666"
     borderopacity="1.0"
     inkscape:pageshadow="2"
     inkscape:pageopacity="0.0"
     inkscape:pagecheckerboard="0"
     inkscape:document-units="mm"
     showgrid="false"
     inkscape:zoom="3.1163627"
     inkscape:cx="225.42306"
     inkscape:cy="95.142969"
     inkscape:window-width="2560"
     inkscape:window-height="1377"
     inkscape:window-x="-8"
     inkscape:window-y="-8"
     inkscape:window-maximized="1"
     inkscape:current-layer="layer1"
     showguides="true"
     inkscape:guide-bbox="true">
    <sodipodi:guide
       position="18.117392,276.59363"
       orientation="0,-1"
       id="guide23918" />
    <sodipodi:guide
       position="9.2692044,271.90381"
       orientation="0,-1"
       id="guide23920" />
    <sodipodi:guide
       position="0.22326031,270.97423"
       orientation="0,-1"
       id="guide28131" />
    <sodipodi:guide
       position="8.1791117,266.44805"
       orientation="0,-1"
       id="guide35176" />
  </sodipodi:namedview>
  <defs
     id="defs2" />
  <g
     inkscape:label="Ebene 1"
     inkscape:groupmode="layer"
     id="layer1">
    <path
       d="M 7.1024939,29.084507 6.9386754,29.24983 5.9287051,28.406685 6.9386754,27.56354 7.1024939,27.730366 6.2833964,28.40368 Z"
       id="path10708"
       style="font-size:5.08662px;line-height:1.25;font-family:consolas;-inkscape-font-specification:consolas;stroke-width:0.0769504" />
    <path
       d="m 8.6249647,29.225783 -0.00601,-0.202896 q -0.1232404,0.121738 -0.250989,0.175843 -0.1262467,0.05411 -0.2660189,0.05411 -0.129253,0 -0.2209309,-0.03306 -0.091682,-0.03306 -0.1517992,-0.09018 -0.058615,-0.05861 -0.087171,-0.136767 -0.027058,-0.07815 -0.027058,-0.169831 0,-0.226943 0.1683293,-0.354691 0.1698311,-0.129253 0.5004761,-0.129253 h 0.3126094 v -0.132256 q 0,-0.133761 -0.085664,-0.213416 -0.085664,-0.08116 -0.2615098,-0.08116 -0.1277494,0 -0.2524926,0.02855 -0.1232404,0.02855 -0.255498,0.08116 v -0.23596 q 0.049599,-0.01803 0.1097132,-0.03456 0.061621,-0.01803 0.1292522,-0.03157 0.067632,-0.01353 0.1412758,-0.02104 0.073642,-0.009 0.1487902,-0.009 0.1367668,0 0.2464808,0.03006 0.1097141,0.03005 0.1848611,0.09168 0.076648,0.06162 0.1172277,0.154802 0.040582,0.09318 0.040582,0.219429 v 1.040028 z M 8.5964128,28.538944 H 8.2642651 q -0.09769,0 -0.1683284,0.01953 -0.070637,0.01954 -0.1157259,0.05561 -0.04509,0.03607 -0.067632,0.08717 -0.021038,0.0496 -0.021038,0.11272 0,0.04359 0.013525,0.08416 0.013525,0.03908 0.043588,0.07064 0.030055,0.03005 0.078151,0.0481 0.048096,0.01803 0.1172286,0.01803 0.090176,0 0.2059019,-0.05411 0.1172277,-0.05561 0.2464808,-0.17434 z"
       id="path10710"
       style="font-size:5.08662px;line-height:1.25;font-family:consolas;-inkscape-font-specification:consolas;fill:#000080;stroke-width:0.0769504" />
    <path
       d="m 12.25304,29.225783 h -0.261509 v -0.963379 q 0,-0.17434 -0.06613,-0.260007 -0.06463,-0.08717 -0.186364,-0.08717 -0.0526,0 -0.09919,0.01503 -0.04509,0.01352 -0.09468,0.0496 -0.0496,0.03456 -0.108213,0.09469 -0.05861,0.06012 -0.135263,0.150293 v 1.000952 h -0.26151 V 27.10215 h 0.26151 v 0.614699 l -0.009,0.237463 q 0.06162,-0.07364 0.120234,-0.12324 0.06012,-0.0511 0.118732,-0.08266 0.06012,-0.03157 0.121737,-0.04509 0.06162,-0.01352 0.127749,-0.01352 0.22544,0 0.348681,0.138269 0.12324,0.136768 0.12324,0.413307 z"
       id="path10712"
       style="font-size:5.08662px;line-height:1.25;font-family:consolas;-inkscape-font-specification:consolas;fill:#5858ff;fill-opacity:1;stroke-width:0.0769504" />
    <path
       d="m 12.794096,27.71684 h 0.238967 l 0.0076,0.278042 q 0.133761,-0.160814 0.263013,-0.232954 0.130756,-0.07214 0.263013,-0.07214 0.234457,0 0.354692,0.151796 0.121737,0.151795 0.11272,0.45088 h -0.264516 q 0.0046,-0.198388 -0.05861,-0.287061 -0.06162,-0.09018 -0.181855,-0.09018 -0.0526,0 -0.106709,0.01954 -0.0526,0.01803 -0.109714,0.06012 -0.05561,0.04058 -0.118731,0.105205 -0.06312,0.06463 -0.135263,0.156305 v 0.969391 h -0.264516 z"
       id="path10714"
       style="font-size:5.08662px;line-height:1.25;font-family:consolas;-inkscape-font-specification:consolas;fill:#5858ff;fill-opacity:1;stroke-width:0.0769504" />
    <path
       d="m 15.699264,28.391656 q 0,0.05561 -0.0015,0.09318 -0.0015,0.03757 -0.0046,0.07064 h -1.059566 q 0,0.23145 0.129251,0.356194 0.129252,0.123241 0.372728,0.123241 0.06613,0 0.132257,-0.0045 0.06613,-0.006 0.12775,-0.01503 0.06162,-0.009 0.117228,-0.01954 0.05711,-0.01202 0.105205,-0.02555 v 0.214919 q -0.106707,0.03005 -0.241971,0.0481 -0.133762,0.01954 -0.278043,0.01954 -0.193878,0 -0.33365,-0.0526 -0.139773,-0.0526 -0.229949,-0.151797 -0.08867,-0.100696 -0.132258,-0.244977 -0.04208,-0.145785 -0.04208,-0.329141 0,-0.159312 0.04509,-0.300587 0.04659,-0.142779 0.133761,-0.249487 0.08867,-0.108211 0.216423,-0.171334 0.127749,-0.06312 0.290065,-0.06312 0.157809,0 0.279545,0.0496 0.121738,0.0496 0.2044,0.141276 0.08416,0.09018 0.126245,0.220931 0.04359,0.129251 0.04359,0.290065 z m -0.272031,-0.03757 q 0.0046,-0.100697 -0.01954,-0.183359 -0.02404,-0.08416 -0.07514,-0.144281 -0.0496,-0.06012 -0.124743,-0.09318 -0.07514,-0.03456 -0.174341,-0.03456 -0.08566,0 -0.156305,0.03307 -0.07064,0.03306 -0.121737,0.09318 -0.0511,0.06012 -0.08266,0.144281 -0.03157,0.08416 -0.03908,0.184861 z"
       id="path10716"
       style="font-size:5.08662px;line-height:1.25;font-family:consolas;-inkscape-font-specification:consolas;fill:#5858ff;fill-opacity:1;stroke-width:0.0769504" />
    <path
       d="m 17.45619,27.345616 q -0.205902,-0.04359 -0.354692,-0.04359 -0.353189,0 -0.353189,0.369721 v 0.264516 h 0.66129 v 0.217925 h -0.66129 v 1.07159 H 16.48229 v -1.07159 h -0.485447 v -0.217925 h 0.485447 v -0.249487 q 0,-0.602675 0.628226,-0.602675 0.156304,0 0.345674,0.03607 z m -1.579581,0.371224 z"
       id="path10718"
       style="font-size:5.08662px;line-height:1.25;font-family:consolas;-inkscape-font-specification:consolas;fill:#5858ff;fill-opacity:1;stroke-width:0.0769504" />
    <path
       d="M 19.061321,28.254889 H 17.7688 v -0.220931 h 1.292521 z m 0,0.52302 H 17.7688 v -0.220931 h 1.292521 z"
       id="path10720"
       style="font-size:5.08662px;line-height:1.25;font-family:consolas;-inkscape-font-specification:consolas;fill:#5858ff;fill-opacity:1;stroke-width:0.0769504" />
    <path
       d="m 19.981115,27.102141 -0.04208,0.704875 h -0.246481 l -0.04359,-0.704875 z m 0.584641,0 -0.04208,0.704875 h -0.246481 l -0.04359,-0.704875 z"
       id="path10722"
       style="font-size:5.08662px;line-height:1.25;font-family:consolas;-inkscape-font-specification:consolas;fill:#5858ff;fill-opacity:1;stroke-width:0.0769504" />
    <path
       d="m 22.483497,28.444259 q 0,0.201392 -0.05711,0.351685 -0.05561,0.150293 -0.154803,0.249487 -0.09919,0.09919 -0.234456,0.14879 -0.135264,0.0496 -0.293072,0.0496 -0.07214,0 -0.144282,-0.0076 -0.07064,-0.0076 -0.144281,-0.02555 v 0.631231 h -0.26151 v -2.125144 h 0.232954 l 0.01653,0.252492 q 0.11272,-0.154802 0.240469,-0.216422 0.127749,-0.06312 0.27654,-0.06312 0.129252,0 0.226942,0.05411 0.09769,0.05411 0.16382,0.153299 0.06613,0.09769 0.09919,0.237463 0.03306,0.13827 0.03306,0.309603 z m -0.267522,0.01202 q 0,-0.118731 -0.01803,-0.217924 -0.01653,-0.09919 -0.05411,-0.169831 -0.03757,-0.07064 -0.09619,-0.109715 -0.05862,-0.04058 -0.139773,-0.04058 -0.0496,0 -0.100696,0.01653 -0.0511,0.01503 -0.106708,0.0526 -0.05411,0.03607 -0.115726,0.09769 -0.06012,0.06012 -0.129252,0.150293 v 0.731928 q 0.07214,0.03006 0.151795,0.0481 0.07965,0.01653 0.156305,0.01653 0.211914,0 0.332148,-0.142778 0.120231,-0.144283 0.120231,-0.432845 z"
       id="path10724"
       style="font-size:5.08662px;line-height:1.25;font-family:consolas;-inkscape-font-specification:consolas;fill:#5858ff;fill-opacity:1;stroke-width:0.0769504" />
    <path
       d="m 24.199845,28.459288 q 0,0.175843 -0.0496,0.32313 -0.0496,0.145784 -0.142778,0.250989 -0.09318,0.103703 -0.226943,0.162317 -0.133761,0.05711 -0.303592,0.05711 -0.162317,0 -0.291569,-0.0496 -0.127749,-0.0511 -0.217926,-0.14879 -0.08867,-0.09769 -0.136765,-0.241972 -0.04659,-0.144281 -0.04659,-0.332148 0,-0.175842 0.0496,-0.320124 0.0496,-0.145785 0.142779,-0.249487 0.09318,-0.105205 0.226942,-0.162316 0.133761,-0.05862 0.303593,-0.05862 0.162316,0 0.290066,0.0511 0.129252,0.0496 0.217924,0.147287 0.09018,0.09619 0.136767,0.240469 0.0481,0.144282 0.0481,0.330645 z m -0.267522,0.01202 q 0,-0.139773 -0.03157,-0.243475 -0.03005,-0.105205 -0.08717,-0.17434 -0.05711,-0.07064 -0.139772,-0.105205 -0.08116,-0.03607 -0.181855,-0.03607 -0.117229,0 -0.201393,0.04659 -0.08266,0.04509 -0.136767,0.121737 -0.0526,0.07665 -0.07815,0.178849 -0.02405,0.100696 -0.02405,0.211913 0,0.139773 0.03005,0.244978 0.03157,0.105205 0.08867,0.175843 0.05711,0.06913 0.138269,0.105205 0.08116,0.03456 0.183357,0.03456 0.117229,0 0.19989,-0.04509 0.08416,-0.04659 0.136767,-0.12324 0.05411,-0.07665 0.07815,-0.177346 0.02555,-0.1022 0.02555,-0.214919 z"
       id="path10726"
       style="font-size:5.08662px;line-height:1.25;font-family:consolas;-inkscape-font-specification:consolas;fill:#5858ff;fill-opacity:1;stroke-width:0.0769504" />
    <path
       d="m 24.640204,27.71684 h 0.238965 l 0.0076,0.278042 q 0.133761,-0.160814 0.263013,-0.232954 0.130755,-0.07214 0.263014,-0.07214 0.234457,0 0.354691,0.151796 0.121738,0.151795 0.112721,0.45088 h -0.264517 q 0.0046,-0.198388 -0.05861,-0.287061 -0.06162,-0.09018 -0.181854,-0.09018 -0.0526,0 -0.106708,0.01954 -0.0526,0.01803 -0.109714,0.06012 -0.05561,0.04058 -0.118732,0.105205 -0.06312,0.06463 -0.135264,0.156305 v 0.969391 h -0.264557 z"
       id="path10728"
       style="font-size:5.08662px;line-height:1.25;font-family:consolas;-inkscape-font-specification:consolas;fill:#5858ff;fill-opacity:1;stroke-width:0.0769504" />
    <path
       d="m 27.486755,29.204742 q -0.08867,0.02255 -0.183357,0.03157 -0.09469,0.01052 -0.192376,0.01052 -0.284054,0 -0.423826,-0.12775 -0.139773,-0.129255 -0.139773,-0.395274 v -0.787535 h -0.422324 v -0.219428 h 0.422324 v -0.414809 l 0.26151,-0.06763 v 0.482442 h 0.677822 v 0.219428 h -0.677822 v 0.766495 q 0,0.162316 0.08566,0.243474 0.08717,0.07965 0.255498,0.07965 0.07214,0 0.157808,-0.01052 0.08566,-0.01202 0.178848,-0.03608 z"
       id="path10730"
       style="font-size:5.08662px;line-height:1.25;font-family:consolas;-inkscape-font-specification:consolas;fill:#5858ff;fill-opacity:1;stroke-width:0.0769504" />
    <path
       d="m 29.302297,27.345616 q -0.205902,-0.04359 -0.354691,-0.04359 -0.353189,0 -0.353189,0.369721 v 0.264516 h 0.66129 v 0.217925 h -0.66129 v 1.07159 h -0.266019 v -1.07159 h -0.485446 v -0.217925 h 0.485446 v -0.249487 q 0,-0.602675 0.628225,-0.602675 0.156305,0 0.345674,0.03607 z m -1.57958,0.371224 z"
       id="path10732"
       style="font-size:5.08662px;line-height:1.25;font-family:consolas;-inkscape-font-specification:consolas;fill:#5858ff;fill-opacity:1;stroke-width:0.0769504" />
    <path
       d="m 30.969049,28.459288 q 0,0.175843 -0.0496,0.32313 -0.0496,0.145784 -0.142779,0.250989 -0.09318,0.103703 -0.226942,0.162317 -0.133761,0.05711 -0.303593,0.05711 -0.162316,0 -0.291569,-0.0496 -0.127748,-0.0511 -0.217924,-0.14879 -0.08867,-0.09769 -0.136767,-0.241972 -0.04658,-0.144281 -0.04658,-0.332148 0,-0.175842 0.0496,-0.320124 0.0496,-0.145785 0.142779,-0.249487 0.09318,-0.105205 0.226942,-0.162316 0.133762,-0.05862 0.303593,-0.05862 0.162316,0 0.290066,0.0511 0.129252,0.0496 0.217924,0.147287 0.09018,0.09619 0.136767,0.240469 0.0481,0.144282 0.0481,0.330645 z m -0.267523,0.01202 q 0,-0.139773 -0.03157,-0.243475 -0.03006,-0.105205 -0.08717,-0.17434 -0.05711,-0.07064 -0.139773,-0.105205 -0.08116,-0.03607 -0.181854,-0.03607 -0.117229,0 -0.201393,0.04659 -0.08266,0.04509 -0.136767,0.121737 -0.0526,0.07665 -0.07815,0.178849 -0.02405,0.100696 -0.02405,0.211913 0,0.139773 0.03006,0.244978 0.03157,0.105205 0.08867,0.175843 0.05711,0.06913 0.138271,0.105205 0.08116,0.03456 0.183357,0.03456 0.117229,0 0.19989,-0.04509 0.08416,-0.04659 0.136768,-0.12324 0.05411,-0.07665 0.07815,-0.177346 0.02555,-0.1022 0.02555,-0.214919 z"
       id="path10734"
       style="font-size:5.08662px;line-height:1.25;font-family:consolas;-inkscape-font-specification:consolas;fill:#5858ff;fill-opacity:1;stroke-width:0.0769504" />
    <path
       d="M 31.861791,27.31706 H 31.41542 v -0.214919 h 0.710886 v 1.905716 h 0.449378 v 0.217926 h -1.209861 v -0.217926 h 0.495968 z"
       id="path10736"
       style="font-size:5.08662px;line-height:1.25;font-family:consolas;-inkscape-font-specification:consolas;fill:#5858ff;fill-opacity:1;stroke-width:0.0769504" />
    <path
       d="M 33.554091,27.933262 H 33.10772 V 27.71684 h 0.710887 v 1.291017 h 0.449377 v 0.217926 h -1.209861 v -0.217926 h 0.495968 z m 0.09168,-0.849157 q 0.04359,0 0.08116,0.01653 0.03757,0.01503 0.06463,0.04359 0.02855,0.02855 0.04359,0.06613 0.01653,0.03607 0.01653,0.07965 0,0.04208 -0.01653,0.07965 -0.01503,0.03757 -0.04359,0.06613 -0.02706,0.02855 -0.06463,0.04509 -0.03757,0.01503 -0.08116,0.01503 -0.04359,0 -0.08116,-0.01503 -0.03757,-0.01653 -0.06613,-0.04509 -0.02706,-0.02855 -0.04359,-0.06613 -0.01503,-0.03757 -0.01503,-0.07965 0,-0.04359 0.01503,-0.07965 0.01653,-0.03757 0.04359,-0.06613 0.02855,-0.02855 0.06613,-0.04359 0.03757,-0.01653 0.08116,-0.01653 z"
       id="path10738"
       style="font-size:5.08662px;line-height:1.25;font-family:consolas;-inkscape-font-specification:consolas;fill:#5858ff;fill-opacity:1;stroke-width:0.0769504" />
    <path
       d="m 36.045951,28.459288 q 0,0.175843 -0.0496,0.32313 -0.0496,0.145784 -0.142779,0.250989 -0.09318,0.103703 -0.226943,0.162317 -0.13376,0.05711 -0.303591,0.05711 -0.162317,0 -0.291569,-0.0496 -0.12775,-0.0511 -0.217926,-0.14879 -0.08867,-0.09769 -0.136766,-0.241972 -0.04659,-0.144281 -0.04659,-0.332148 0,-0.175842 0.0496,-0.320124 0.0496,-0.145785 0.142779,-0.249487 0.09318,-0.105205 0.226942,-0.162316 0.133761,-0.05862 0.303593,-0.05862 0.162315,0 0.290065,0.0511 0.129252,0.0496 0.217925,0.147287 0.09018,0.09619 0.136767,0.240469 0.0481,0.144282 0.0481,0.330645 z m -0.267523,0.01202 q 0,-0.139773 -0.03157,-0.243475 -0.03005,-0.105205 -0.08717,-0.17434 -0.05711,-0.07064 -0.139773,-0.105205 -0.08116,-0.03607 -0.181855,-0.03607 -0.117228,0 -0.201393,0.04659 -0.08266,0.04509 -0.136766,0.121737 -0.0526,0.07665 -0.07815,0.178849 -0.02405,0.100696 -0.02405,0.211913 0,0.139773 0.03005,0.244978 0.03157,0.105205 0.08867,0.175843 0.05711,0.06913 0.138269,0.105205 0.08116,0.03456 0.183358,0.03456 0.117228,0 0.19989,-0.04509 0.08416,-0.04659 0.136767,-0.12324 0.05411,-0.07665 0.07815,-0.177346 0.02555,-0.1022 0.02555,-0.214919 z"
       id="path10740"
       style="font-size:5.08662px;line-height:1.25;font-family:consolas;-inkscape-font-specification:consolas;fill:#5858ff;fill-opacity:1;stroke-width:0.0769504" />
    <path
       d="m 37.018349,28.752359 q 0.0511,0 0.09619,0.01954 0.04659,0.01953 0.07965,0.05411 0.03456,0.03456 0.05411,0.08116 0.01953,0.04509 0.01953,0.09769 0,0.0511 -0.01953,0.09619 -0.01954,0.04509 -0.05411,0.07965 -0.03306,0.03306 -0.07965,0.0526 -0.04509,0.01953 -0.09619,0.01953 -0.0526,0 -0.09769,-0.01953 -0.04509,-0.01954 -0.07965,-0.0526 -0.03306,-0.03457 -0.0526,-0.07965 -0.01954,-0.04509 -0.01954,-0.09619 0,-0.0526 0.01954,-0.09769 0.01954,-0.04659 0.0526,-0.08116 0.03456,-0.03456 0.07965,-0.05411 0.04509,-0.01954 0.09769,-0.01954 z"
       id="path10742"
       style="font-size:5.08662px;line-height:1.25;font-family:consolas;-inkscape-font-specification:consolas;fill:#5858ff;fill-opacity:1;stroke-width:0.0769504" />
    <path
       d="m 39.329857,29.225783 h -0.261511 v -0.963379 q 0,-0.17434 -0.06613,-0.260007 -0.06463,-0.08717 -0.186364,-0.08717 -0.0526,0 -0.09919,0.01503 -0.04509,0.01352 -0.09469,0.0496 -0.0496,0.03456 -0.108211,0.09469 -0.05861,0.06012 -0.135264,0.150293 v 1.000952 h -0.26151 V 27.10215 h 0.26151 v 0.614699 l -0.009,0.237463 q 0.06162,-0.07364 0.120234,-0.12324 0.06012,-0.0511 0.118732,-0.08266 0.06012,-0.03157 0.121737,-0.04509 0.06162,-0.01352 0.127749,-0.01352 0.22544,0 0.348681,0.138269 0.12324,0.136768 0.12324,0.413307 z"
       id="path10744"
       style="font-size:5.08662px;line-height:1.25;font-family:consolas;-inkscape-font-specification:consolas;fill:#5858ff;fill-opacity:1;stroke-width:0.0769504" />
    <path
       d="m 41.025165,29.204742 q -0.08867,0.02255 -0.183357,0.03157 -0.09468,0.01052 -0.192376,0.01052 -0.284054,0 -0.423827,-0.12775 -0.139772,-0.129255 -0.139772,-0.395274 v -0.787535 h -0.422324 v -0.219428 h 0.422324 v -0.414809 l 0.26151,-0.06763 v 0.482442 h 0.677822 v 0.219428 h -0.677822 v 0.766495 q 0,0.162316 0.08566,0.243474 0.08717,0.07965 0.255499,0.07965 0.07214,0 0.157808,-0.01052 0.08566,-0.01202 0.178848,-0.03608 z"
       id="path10746"
       style="font-size:5.08662px;line-height:1.25;font-family:consolas;-inkscape-font-specification:consolas;fill:#5858ff;fill-opacity:1;stroke-width:0.0769504" />
    <path
       d="M 42.577693,29.225783 V 28.14217 q 0,-0.07064 -0.006,-0.115726 -0.0046,-0.04509 -0.01653,-0.07064 -0.01052,-0.02706 -0.02855,-0.03757 -0.01653,-0.01052 -0.04208,-0.01052 -0.03005,0 -0.05561,0.01803 -0.02555,0.01803 -0.05561,0.05861 -0.02855,0.04058 -0.06463,0.108211 -0.03456,0.06613 -0.08266,0.16382 v 0.969391 h -0.238986 v -1.055058 q 0,-0.08266 -0.006,-0.13376 -0.0046,-0.0511 -0.01653,-0.07965 -0.01053,-0.02855 -0.02855,-0.03908 -0.01804,-0.01053 -0.04359,-0.01053 -0.02706,0 -0.0511,0.01503 -0.02404,0.01503 -0.05411,0.05411 -0.02855,0.03908 -0.06463,0.106708 -0.03608,0.06763 -0.08566,0.172837 v 0.969391 h -0.240489 v -1.508943 h 0.19989 l 0.01202,0.28706 q 0.03908,-0.08566 0.07515,-0.145784 0.03757,-0.06012 0.07665,-0.09619 0.03908,-0.03757 0.08266,-0.05411 0.04509,-0.01803 0.09919,-0.01803 0.121736,0 0.184861,0.07965 0.06312,0.07965 0.06312,0.246481 0.03607,-0.07815 0.07064,-0.13827 0.03456,-0.06162 0.07364,-0.102199 0.04058,-0.04208 0.08867,-0.06312 0.0481,-0.02255 0.111217,-0.02255 0.284054,0 0.284054,0.437352 v 1.098643 z"
       id="path10748"
       style="font-size:5.08662px;line-height:1.25;font-family:consolas;-inkscape-font-specification:consolas;fill:#5858ff;fill-opacity:1;stroke-width:0.0769504" />
    <path
       d="m 43.707896,27.31706 h -0.446371 v -0.214919 h 0.710887 v 1.905716 h 0.449377 v 0.217926 h -1.20986 v -0.217926 h 0.495967 z"
       id="path10750"
       style="font-size:5.08662px;line-height:1.25;font-family:consolas;-inkscape-font-specification:consolas;fill:#5858ff;fill-opacity:1;stroke-width:0.0769504" />
    <path
       d="m 45.365629,27.102141 -0.04208,0.704875 h -0.246481 l -0.04359,-0.704875 z m 0.584641,0 -0.04208,0.704875 h -0.246481 l -0.04359,-0.704875 z"
       id="path10752"
       style="font-size:5.08662px;line-height:1.25;font-family:consolas;-inkscape-font-specification:consolas;fill:#5858ff;fill-opacity:1;stroke-width:0.0769504" />
    <path
       d="m 49.48667,29.204742 q -0.08867,0.02255 -0.183357,0.03157 -0.09469,0.01052 -0.192376,0.01052 -0.284053,0 -0.423826,-0.12775 -0.139773,-0.129255 -0.139773,-0.395274 v -0.787535 h -0.422324 v -0.219428 h 0.422324 v -0.414809 l 0.26151,-0.06763 v 0.482442 h 0.677822 v 0.219428 h -0.677822 v 0.766495 q 0,0.162316 0.08567,0.243474 0.08717,0.07965 0.255498,0.07965 0.07214,0 0.157808,-0.01052 0.08566,-0.01202 0.178849,-0.03608 z"
       id="path10754"
       style="font-size:5.08662px;line-height:1.25;font-family:consolas;-inkscape-font-specification:consolas;fill:#5858ff;fill-opacity:1;stroke-width:0.0769504" />
    <path
       d="m 50.93249,29.225783 -0.006,-0.202896 q -0.123241,0.121738 -0.25099,0.175843 -0.126246,0.05411 -0.266019,0.05411 -0.129252,0 -0.220931,-0.03306 -0.09168,-0.03306 -0.151796,-0.09018 -0.05862,-0.05861 -0.08717,-0.136767 -0.02706,-0.07815 -0.02706,-0.169831 0,-0.226943 0.168328,-0.354692 0.169831,-0.129252 0.500476,-0.129252 h 0.31261 v -0.132256 q 0,-0.133761 -0.08566,-0.213416 -0.08566,-0.08116 -0.26151,-0.08116 -0.12775,0 -0.252493,0.02855 -0.12324,0.02855 -0.255499,0.08116 v -0.23596 q 0.0496,-0.01803 0.109715,-0.03456 0.06162,-0.01803 0.129252,-0.03157 0.06763,-0.01353 0.141275,-0.02104 0.07364,-0.009 0.148791,-0.009 0.136766,0 0.24648,0.03006 0.109715,0.03005 0.184861,0.09168 0.07665,0.06162 0.117229,0.154802 0.04058,0.09318 0.04058,0.219429 v 1.040028 z m -0.02855,-0.686839 h -0.33215 q -0.09769,0 -0.168328,0.01953 -0.07064,0.01954 -0.115725,0.05561 -0.04509,0.03607 -0.06763,0.08717 -0.02104,0.0496 -0.02104,0.11272 0,0.04359 0.01352,0.08416 0.01352,0.03908 0.04359,0.07064 0.03005,0.03005 0.07815,0.0481 0.0481,0.01803 0.117228,0.01803 0.09018,0 0.205901,-0.05411 0.117229,-0.05561 0.246481,-0.17434 z"
       id="path10756"
       style="font-size:5.08662px;line-height:1.25;font-family:consolas;-inkscape-font-specification:consolas;fill:#5858ff;fill-opacity:1;stroke-width:0.0769504" />
    <path
       d="m 51.717019,27.71684 h 0.238966 l 0.0076,0.278042 q 0.133761,-0.160814 0.263013,-0.232954 0.130755,-0.07214 0.263014,-0.07214 0.234457,0 0.354691,0.151796 0.121738,0.151795 0.11272,0.45088 h -0.264516 q 0.0046,-0.198388 -0.05862,-0.287061 -0.06162,-0.09018 -0.181855,-0.09018 -0.0526,0 -0.106708,0.01954 -0.0526,0.01803 -0.109714,0.06012 -0.05561,0.04058 -0.118732,0.105205 -0.06312,0.06463 -0.135264,0.156305 v 0.969391 h -0.264519 z"
       id="path10758"
       style="font-size:5.08662px;line-height:1.25;font-family:consolas;-inkscape-font-specification:consolas;fill:#5858ff;fill-opacity:1;stroke-width:0.0769504" />
    <path
       d="m 54.434319,27.930256 q 0.04208,0.0526 0.06463,0.123241 0.02404,0.06913 0.02404,0.150293 0,0.117228 -0.04359,0.214919 -0.04208,0.09619 -0.120235,0.165323 -0.07815,0.06913 -0.187867,0.10821 -0.108211,0.03757 -0.238966,0.03757 -0.09468,0 -0.177346,-0.01954 -0.08266,-0.02104 -0.130755,-0.0511 -0.02855,0.04208 -0.0481,0.07965 -0.01953,0.03757 -0.01953,0.08416 0,0.05711 0.05411,0.09469 0.05561,0.03757 0.145785,0.04058 l 0.396773,0.01503 q 0.11272,0.003 0.207405,0.02855 0.09619,0.02555 0.16382,0.07364 0.06913,0.0481 0.106707,0.118731 0.03908,0.07064 0.03908,0.16382 0,0.100696 -0.04359,0.190872 -0.04359,0.09018 -0.135263,0.157808 -0.09018,0.06913 -0.229949,0.109714 -0.139772,0.04058 -0.332148,0.04058 -0.183357,0 -0.31261,-0.03006 -0.127748,-0.02855 -0.21041,-0.08116 -0.08266,-0.0511 -0.120235,-0.12324 -0.03757,-0.07064 -0.03757,-0.156305 0,-0.109714 0.0511,-0.192376 0.0511,-0.08266 0.157808,-0.15931 -0.03908,-0.01803 -0.06763,-0.04509 -0.02855,-0.02706 -0.04658,-0.05862 -0.01803,-0.03306 -0.02706,-0.06913 -0.009,-0.03607 -0.009,-0.07064 0,-0.09769 0.04509,-0.178848 0.04659,-0.08116 0.109714,-0.1533 -0.02855,-0.03456 -0.0511,-0.06763 -0.02104,-0.03306 -0.03757,-0.07064 -0.01503,-0.03908 -0.02404,-0.08266 -0.0076,-0.04509 -0.0076,-0.1022 0,-0.117228 0.04208,-0.213416 0.04359,-0.09769 0.120235,-0.166825 0.07815,-0.06913 0.186363,-0.106708 0.109714,-0.03908 0.241972,-0.03908 0.05561,0 0.106708,0.0076 0.0511,0.0076 0.09018,0.01954 h 0.547067 v 0.213416 z m -0.907771,1.513452 q 0,0.106708 0.111217,0.154802 0.111217,0.0496 0.309604,0.0496 0.124743,0 0.208907,-0.02255 0.08566,-0.02255 0.136767,-0.06012 0.0526,-0.03607 0.07515,-0.08416 0.02255,-0.04659 0.02255,-0.09619 0,-0.09168 -0.07515,-0.135264 -0.07514,-0.04359 -0.229948,-0.0511 l -0.393772,-0.01352 q -0.0496,0.03306 -0.08266,0.06463 -0.03157,0.03157 -0.0496,0.06312 -0.01803,0.03306 -0.02555,0.06463 -0.0076,0.03307 -0.0076,0.06613 z m 0.07965,-1.233907 q 0,0.07214 0.02404,0.132258 0.02404,0.06012 0.06763,0.1022 0.04359,0.04208 0.102199,0.06613 0.06012,0.02255 0.132258,0.02255 0.07815,0 0.13827,-0.02555 0.06162,-0.02706 0.1022,-0.07214 0.04208,-0.04509 0.06312,-0.103703 0.02255,-0.05862 0.02255,-0.121737 0,-0.07214 -0.02404,-0.132258 -0.02404,-0.06012 -0.06763,-0.102199 -0.04359,-0.04208 -0.103702,-0.06463 -0.05862,-0.02404 -0.130755,-0.02404 -0.07815,0 -0.139773,0.02706 -0.06012,0.02706 -0.102199,0.07214 -0.04058,0.04359 -0.06312,0.102199 -0.02104,0.05861 -0.02104,0.121738 z"
       id="path10760"
       style="font-size:5.08662px;line-height:1.25;font-family:consolas;-inkscape-font-specification:consolas;fill:#5858ff;fill-opacity:1;stroke-width:0.0769504" />
    <path
       d="m 56.314485,28.391656 q 0,0.05561 -0.0015,0.09318 -0.0015,0.03757 -0.0046,0.07064 h -1.059568 q 0,0.23145 0.129252,0.356194 0.129253,0.123241 0.372727,0.123241 0.06613,0 0.132259,-0.0045 0.06613,-0.006 0.127749,-0.01503 0.06162,-0.009 0.117228,-0.01954 0.05711,-0.01202 0.105205,-0.02555 v 0.214919 q -0.106707,0.03005 -0.241971,0.0481 -0.133761,0.01954 -0.278043,0.01954 -0.193879,0 -0.333651,-0.0526 -0.139772,-0.0526 -0.229948,-0.151797 -0.08867,-0.100696 -0.132259,-0.244977 -0.04208,-0.145785 -0.04208,-0.329141 0,-0.159312 0.04509,-0.300587 0.04658,-0.142779 0.13376,-0.249487 0.08867,-0.108211 0.216422,-0.171334 0.127749,-0.06312 0.290066,-0.06312 0.157807,0 0.279545,0.0496 0.121738,0.0496 0.204398,0.141276 0.08416,0.09018 0.126247,0.220931 0.04359,0.129251 0.04359,0.290065 z m -0.27203,-0.03757 q 0.0046,-0.100697 -0.01954,-0.183359 -0.02404,-0.08416 -0.07515,-0.144281 -0.0496,-0.06012 -0.124743,-0.09318 -0.07514,-0.03456 -0.17434,-0.03456 -0.08566,0 -0.156305,0.03307 -0.07064,0.03306 -0.121737,0.09318 -0.0511,0.06012 -0.08266,0.144281 -0.03157,0.08416 -0.03908,0.184861 z"
       id="path10762"
       style="font-size:5.08662px;line-height:1.25;font-family:consolas;-inkscape-font-specification:consolas;fill:#5858ff;fill-opacity:1;stroke-width:0.0769504" />
    <path
       d="m 57.948176,29.204742 q -0.08867,0.02255 -0.183358,0.03157 -0.09468,0.01052 -0.192375,0.01052 -0.284055,0 -0.423827,-0.12775 -0.139772,-0.129255 -0.139772,-0.395274 v -0.78754 H 56.58652 V 27.71684 h 0.422324 v -0.414809 l 0.26151,-0.06763 v 0.482442 h 0.677822 v 0.219428 h -0.677822 v 0.766495 q 0,0.162316 0.08566,0.243474 0.08717,0.07965 0.255499,0.07965 0.07214,0 0.157808,-0.01052 0.08566,-0.01202 0.178849,-0.03608 z"
       id="path10764"
       style="font-size:5.08662px;line-height:1.25;font-family:consolas;-inkscape-font-specification:consolas;fill:#5858ff;fill-opacity:1;stroke-width:0.0769504" />
    <path
       d="m 59.676547,28.254889 h -1.292522 v -0.220931 h 1.292522 z m 0,0.52302 h -1.292522 v -0.220931 h 1.292522 z"
       id="path10766"
       style="font-size:5.08662px;line-height:1.25;font-family:consolas;-inkscape-font-specification:consolas;fill:#5858ff;fill-opacity:1;stroke-width:0.0769504" />
    <path
       d="m 60.596338,27.102141 -0.04206,0.704875 h -0.246483 l -0.04357,-0.704875 z m 0.584641,0 -0.04206,0.704875 h -0.246482 l -0.04357,-0.704875 z"
       id="path10768"
       style="font-size:5.08662px;line-height:1.25;font-family:consolas;-inkscape-font-specification:consolas;fill:#5858ff;fill-opacity:1;stroke-width:0.0769504" />
    <path
       d="m 63.261035,29.841985 h -1.692297 v -0.216422 h 1.692297 z"
       id="path10770"
       style="font-size:5.08662px;line-height:1.25;font-family:consolas;-inkscape-font-specification:consolas;fill:#5858ff;fill-opacity:1;stroke-width:0.0769504" />
    <path
       d="m 64.79102,28.444259 q 0,0.187866 -0.05259,0.336656 -0.05114,0.147287 -0.147286,0.25099 -0.09469,0.102199 -0.231452,0.157808 -0.136768,0.05411 -0.308101,0.05411 -0.133761,0 -0.273538,-0.02555 -0.139769,-0.02555 -0.276539,-0.08116 v -2.03497 h 0.261514 v 0.584641 l -0.01204,0.279546 q 0.112722,-0.151797 0.240468,-0.213417 0.129253,-0.06312 0.276539,-0.06312 0.129253,0 0.226943,0.05411 0.09769,0.05411 0.163818,0.153299 0.06613,0.09769 0.0992,0.237463 0.03304,0.13827 0.03304,0.309603 z m -0.267523,0.01202 q 0,-0.118731 -0.01803,-0.217924 -0.01652,-0.09919 -0.0541,-0.169831 -0.03758,-0.07064 -0.09619,-0.109715 -0.05863,-0.04058 -0.13977,-0.04058 -0.04962,0 -0.100698,0.01653 -0.05108,0.01503 -0.106706,0.0526 -0.0541,0.03607 -0.115729,0.09769 -0.06015,0.06012 -0.129247,0.150293 v 0.731928 q 0.07665,0.03006 0.156302,0.0481 0.07965,0.01653 0.151794,0.01653 0.09018,0 0.171339,-0.02855 0.08266,-0.02855 0.144278,-0.09468 0.06312,-0.06763 0.0992,-0.177346 0.03758,-0.111216 0.03758,-0.275037 z"
       id="path10772"
       style="font-size:5.08662px;line-height:1.25;font-family:consolas;-inkscape-font-specification:consolas;fill:#5858ff;fill-opacity:1;stroke-width:0.0769504" />
    <path
       d="m 65.70781,27.31706 h -0.446371 v -0.214919 h 0.710886 v 1.905716 h 0.449378 v 0.217926 h -1.20986 v -0.217926 h 0.495967 z"
       id="path10774"
       style="font-size:5.08662px;line-height:1.25;font-family:consolas;-inkscape-font-specification:consolas;fill:#5858ff;fill-opacity:1;stroke-width:0.0769504" />
    <path
       d="m 67.8555,29.225783 -0.006,-0.202896 q -0.123239,0.121738 -0.250991,0.175843 -0.126246,0.05411 -0.266015,0.05411 -0.129254,0 -0.220936,-0.03306 -0.09167,-0.03306 -0.151793,-0.09018 -0.05864,-0.05861 -0.08717,-0.136767 -0.02705,-0.07815 -0.02705,-0.169831 0,-0.226943 0.168326,-0.354692 0.169832,-0.129252 0.50048,-0.129252 h 0.31261 v -0.132256 q 0,-0.133761 -0.08567,-0.213416 -0.08566,-0.08116 -0.261508,-0.08116 -0.127746,0 -0.252491,0.02855 -0.123239,0.02855 -0.255499,0.08116 v -0.23596 q 0.04962,-0.01803 0.109714,-0.03456 0.06162,-0.01803 0.129253,-0.03157 0.06763,-0.01353 0.141277,-0.02104 0.07364,-0.009 0.148786,-0.009 0.136769,0 0.246482,0.03006 0.109714,0.03005 0.184858,0.09168 0.07665,0.06162 0.117229,0.154802 0.0406,0.09318 0.0406,0.219429 v 1.040028 z m -0.02856,-0.686839 h -0.33215 q -0.09769,0 -0.168332,0.01953 -0.07064,0.01954 -0.115722,0.05561 -0.04508,0.03607 -0.06763,0.08717 -0.02105,0.0496 -0.02105,0.11272 0,0.04359 0.01356,0.08416 0.01355,0.03908 0.04357,0.07064 0.03007,0.03005 0.07815,0.0481 0.0481,0.01803 0.117229,0.01803 0.09018,0 0.205903,-0.05411 0.117229,-0.05561 0.246483,-0.17434 z"
       id="path10776"
       style="font-size:5.08662px;line-height:1.25;font-family:consolas;-inkscape-font-specification:consolas;fill:#5858ff;fill-opacity:1;stroke-width:0.0769504" />
    <path
       d="m 68.578403,27.71684 h 0.232958 l 0.01053,0.243474 q 0.06614,-0.07815 0.127752,-0.129252 0.06162,-0.0526 0.120238,-0.08416 0.06008,-0.03157 0.121737,-0.04359 0.06162,-0.01353 0.127746,-0.01353 0.232952,0 0.351689,0.13827 0.12023,0.136767 0.12023,0.413306 v 0.98442 h -0.261505 v -0.96338 q 0,-0.177346 -0.06614,-0.26151 -0.06613,-0.08566 -0.196881,-0.08566 -0.0481,0 -0.09468,0.01503 -0.04508,0.01352 -0.09469,0.0496 -0.04962,0.03456 -0.108207,0.09468 -0.05712,0.06012 -0.129253,0.150293 v 1.000952 h -0.26151 z"
       id="path10778"
       style="font-size:5.08662px;line-height:1.25;font-family:consolas;-inkscape-font-specification:consolas;fill:#5858ff;fill-opacity:1;stroke-width:0.0769504" />
    <path
       d="m 71.627852,29.225783 h -0.359198 l -0.703371,-0.808577 v 0.808577 H 70.30377 v -2.123642 h 0.261513 v 1.304544 l 0.677823,-0.689845 h 0.345674 l -0.707885,0.695857 z"
       id="path10780"
       style="font-size:5.08662px;line-height:1.25;font-family:consolas;-inkscape-font-specification:consolas;fill:#5858ff;fill-opacity:1;stroke-width:0.0769504" />
    <path
       d="m 72.442443,27.102141 -0.04212,0.704875 h -0.246476 l -0.04357,-0.704875 z m 0.584641,0 -0.04212,0.704875 h -0.246476 l -0.04357,-0.704875 z"
       id="path10782"
       style="font-size:5.08662px;line-height:1.25;font-family:consolas;-inkscape-font-specification:consolas;fill:#5858ff;fill-opacity:1;stroke-width:0.0769504" />
    <path
       d="m 73.728953,27.730366 0.162317,-0.166826 1.009972,0.843145 -1.009972,0.843145 -0.162317,-0.165323 0.819101,-0.674816 z"
       id="path10784"
       style="font-size:5.08662px;line-height:1.25;font-family:consolas;-inkscape-font-specification:consolas;stroke-width:0.0769504" />
    <path
       d="m 76.634124,27.862624 q 0,0.120235 -0.04508,0.238966 -0.04508,0.117229 -0.139771,0.210411 -0.09468,0.09318 -0.241974,0.151796 -0.147286,0.05711 -0.351682,0.05711 H 75.61214 v 0.704874 h -0.267522 v -1.964329 h 0.553078 q 0.145784,0 0.279546,0.03306 0.133761,0.03157 0.234459,0.103702 0.102198,0.07214 0.162316,0.186364 0.06015,0.114222 0.06015,0.278042 z m -0.278046,0.01202 q 0,-0.18937 -0.124745,-0.290066 -0.123238,-0.100696 -0.345673,-0.100696 h -0.273532 v 0.808577 h 0.249485 q 0.237466,0 0.365212,-0.103702 0.129253,-0.103703 0.129253,-0.314113 z"
       id="path10786"
       style="font-size:5.08662px;line-height:1.25;font-family:consolas;-inkscape-font-specification:consolas;stroke-width:0.0769504" />
    <path
       d="m 78.353475,28.459288 q 0,0.175843 -0.04962,0.32313 -0.04962,0.145784 -0.142784,0.250989 -0.09318,0.103703 -0.226937,0.162317 -0.133761,0.05711 -0.303593,0.05711 -0.162318,0 -0.291571,-0.0496 -0.127746,-0.0511 -0.217927,-0.14879 -0.08867,-0.09769 -0.136762,-0.241972 -0.04659,-0.144281 -0.04659,-0.332148 0,-0.175842 0.04962,-0.320124 0.04962,-0.145785 0.142783,-0.249487 0.09318,-0.105205 0.226938,-0.162316 0.133761,-0.05862 0.303594,-0.05862 0.162316,0 0.290068,0.0511 0.129247,0.0496 0.217921,0.147287 0.09018,0.09619 0.13677,0.240469 0.0481,0.144282 0.0481,0.330645 z m -0.267522,0.01202 q 0,-0.139773 -0.03159,-0.243475 -0.03007,-0.105205 -0.08717,-0.17434 -0.05712,-0.07064 -0.139776,-0.105205 -0.08116,-0.03607 -0.181856,-0.03607 -0.117224,0 -0.20139,0.04659 -0.08266,0.04509 -0.136768,0.121737 -0.05259,0.07665 -0.07815,0.178849 -0.02403,0.100696 -0.02403,0.211913 0,0.139773 0.03007,0.244978 0.03158,0.105205 0.08867,0.175843 0.05712,0.06913 0.138269,0.105205 0.08116,0.03456 0.183357,0.03456 0.117229,0 0.199895,-0.04509 0.08416,-0.04659 0.136762,-0.12324 0.0541,-0.07665 0.07816,-0.177346 0.02554,-0.1022 0.02554,-0.214919 z"
       id="path10788"
       style="font-size:5.08662px;line-height:1.25;font-family:consolas;-inkscape-font-specification:consolas;stroke-width:0.0769504" />
    <path
       d="m 78.793831,27.71684 h 0.238968 l 0.0075,0.278042 q 0.133762,-0.160814 0.263015,-0.232954 0.130754,-0.07214 0.263008,-0.07214 0.234459,0 0.354695,0.151796 0.121738,0.151795 0.112716,0.45088 h -0.264515 q 0.0042,-0.198388 -0.05863,-0.287061 -0.06162,-0.09018 -0.181856,-0.09018 -0.05259,0 -0.106707,0.01954 -0.05259,0.01803 -0.109714,0.06012 -0.05561,0.04058 -0.11873,0.105205 -0.06312,0.06463 -0.135268,0.156305 v 0.969391 h -0.264515 z"
       id="path10790"
       style="font-size:5.08662px;line-height:1.25;font-family:consolas;-inkscape-font-specification:consolas;stroke-width:0.0769504" />
    <path
       d="m 81.640382,29.204742 q -0.08867,0.02255 -0.183359,0.03157 -0.09468,0.01052 -0.192375,0.01052 -0.284051,0 -0.423822,-0.12775 -0.139772,-0.129252 -0.139772,-0.395271 V 27.936268 H 80.27873 V 27.71684 h 0.422324 v -0.414809 l 0.26151,-0.06763 v 0.482442 h 0.677818 v 0.219428 h -0.677818 v 0.766495 q 0,0.162316 0.0857,0.243474 0.08717,0.07965 0.255499,0.07965 0.07213,0 0.157804,-0.01052 0.0857,-0.01202 0.178851,-0.03608 z"
       id="path10792"
       style="font-size:5.08662px;line-height:1.25;font-family:consolas;-inkscape-font-specification:consolas;stroke-width:0.0769504" />
    <path
       d="m 83.455924,27.345616 q -0.2059,-0.04359 -0.354688,-0.04359 -0.353194,0 -0.353194,0.369721 v 0.264516 h 0.661289 v 0.217926 h -0.661289 v 1.071589 h -0.266018 v -1.07159 h -0.485442 v -0.217925 h 0.485442 v -0.249487 q 0,-0.602675 0.628228,-0.602675 0.156302,0 0.345672,0.03607 z m -1.579578,0.371224 z"
       id="path10794"
       style="font-size:5.08662px;line-height:1.25;font-family:consolas;-inkscape-font-specification:consolas;stroke-width:0.0769504" />
    <path
       d="m 85.122669,28.459288 q 0,0.175843 -0.04963,0.32313 -0.04963,0.145784 -0.142777,0.250989 -0.09319,0.103703 -0.226947,0.162317 -0.13376,0.05711 -0.303586,0.05711 -0.162321,0 -0.291573,-0.0496 -0.12775,-0.0511 -0.217922,-0.14879 -0.08868,-0.09769 -0.136766,-0.241972 -0.04663,-0.144281 -0.04663,-0.332148 0,-0.175842 0.04963,-0.320124 0.04963,-0.145785 0.142777,-0.249487 0.09319,-0.105205 0.226947,-0.162316 0.133761,-0.05862 0.303587,-0.05862 0.16232,0 0.29007,0.0511 0.129252,0.0496 0.217922,0.147287 0.09018,0.09619 0.136766,0.240469 0.04809,0.144282 0.04809,0.330645 z m -0.267521,0.01202 q 0,-0.139773 -0.03151,-0.243475 -0.03006,-0.105205 -0.08718,-0.17434 -0.0571,-0.07064 -0.139771,-0.105205 -0.08115,-0.03607 -0.181856,-0.03607 -0.117231,0 -0.201392,0.04659 -0.08269,0.04509 -0.136766,0.121737 -0.05255,0.07665 -0.07814,0.178849 -0.02404,0.100696 -0.02404,0.211913 0,0.139773 0.03006,0.244978 0.0316,0.105205 0.08868,0.175843 0.0571,0.06913 0.138269,0.105205 0.08115,0.03456 0.183359,0.03456 0.117221,0 0.19988,-0.04509 0.08415,-0.04659 0.136775,-0.12324 0.0541,-0.07665 0.07814,-0.177346 0.0255,-0.1022 0.0255,-0.214919 z"
       id="path10796"
       style="font-size:5.08662px;line-height:1.25;font-family:consolas;-inkscape-font-specification:consolas;stroke-width:0.0769504" />
    <path
       d="m 86.015413,27.31706 h -0.446372 v -0.214919 h 0.710887 v 1.905716 h 0.449377 v 0.217926 h -1.209854 v -0.217926 h 0.495962 z"
       id="path10798"
       style="font-size:5.08662px;line-height:1.25;font-family:consolas;-inkscape-font-specification:consolas;stroke-width:0.0769504" />
    <path
       d="M 87.707721,27.933262 H 87.26135 V 27.71684 h 0.710887 v 1.291017 h 0.449368 v 0.217926 h -1.209863 v -0.217926 h 0.495979 z m 0.09168,-0.849157 q 0.04354,0 0.08115,0.01653 0.03761,0.01503 0.06466,0.04359 0.02859,0.02855 0.04354,0.06613 0.01649,0.03607 0.01649,0.07965 0,0.04208 -0.01649,0.07965 -0.01503,0.03757 -0.04354,0.06613 -0.02705,0.02855 -0.06466,0.04509 -0.03761,0.01503 -0.08115,0.01503 -0.04354,0 -0.08115,-0.01503 -0.03761,-0.01653 -0.06612,-0.04509 -0.02705,-0.02855 -0.04354,-0.06613 -0.01503,-0.03757 -0.01503,-0.07965 0,-0.04359 0.01503,-0.07965 0.01649,-0.03757 0.04354,-0.06613 0.02859,-0.02855 0.06612,-0.04359 0.03761,-0.01653 0.08115,-0.01653 z"
       id="path10800"
       style="font-size:5.08662px;line-height:1.25;font-family:consolas;-inkscape-font-specification:consolas;stroke-width:0.0769504" />
    <path
       d="m 90.199587,28.459288 q 0,0.175843 -0.04963,0.32313 -0.04963,0.145784 -0.142777,0.250989 -0.09318,0.103703 -0.226938,0.162317 -0.133761,0.05711 -0.303587,0.05711 -0.162321,0 -0.291573,-0.0496 -0.127749,-0.0511 -0.21793,-0.14879 -0.08867,-0.09769 -0.136766,-0.241972 -0.04663,-0.144281 -0.04663,-0.332148 0,-0.175842 0.04963,-0.320124 0.04963,-0.145785 0.142786,-0.249487 0.09318,-0.105205 0.226938,-0.162316 0.13376,-0.05862 0.303595,-0.05862 0.162321,0 0.290062,0.0511 0.129252,0.0496 0.21793,0.147287 0.09017,0.09619 0.136766,0.240469 0.04809,0.144282 0.04809,0.330645 z m -0.267521,0.01202 q 0,-0.139773 -0.0316,-0.243475 -0.03005,-0.105205 -0.08717,-0.17434 -0.0571,-0.07064 -0.139771,-0.105205 -0.08115,-0.03607 -0.181857,-0.03607 -0.11723,0 -0.201392,0.04659 -0.08269,0.04509 -0.136766,0.121737 -0.05255,0.07665 -0.07814,0.178849 -0.02404,0.100696 -0.02404,0.211913 0,0.139773 0.03005,0.244978 0.0316,0.105205 0.08868,0.175843 0.0571,0.06913 0.138268,0.105205 0.08115,0.03456 0.183359,0.03456 0.117231,0 0.199889,-0.04509 0.08415,-0.04659 0.136766,-0.12324 0.0541,-0.07665 0.07814,-0.177346 0.0255,-0.1022 0.0255,-0.214919 z"
       id="path10802"
       style="font-size:5.08662px;line-height:1.25;font-family:consolas;-inkscape-font-specification:consolas;stroke-width:0.0769504" />
    <path
       d="m 91.717544,29.084507 -0.163823,0.165323 -1.009965,-0.843145 1.009965,-0.843145 0.163823,0.166826 -0.819092,0.673314 z"
       id="path10804"
       style="font-size:5.08662px;line-height:1.25;font-family:consolas;-inkscape-font-specification:consolas;stroke-width:0.0769504" />
    <path
       d="m 93.483487,27.102141 -1.031012,2.446772 h -0.249479 l 1.031012,-2.446772 z"
       id="path10806"
       style="font-size:5.08662px;line-height:1.25;font-family:consolas;-inkscape-font-specification:consolas;stroke-width:0.0769504" />
    <path
       d="m 94.932319,29.225783 -0.006,-0.202896 q -0.123241,0.121738 -0.250991,0.175843 -0.126246,0.05411 -0.266018,0.05411 -0.129252,0 -0.220936,-0.03306 -0.09167,-0.03306 -0.151793,-0.09018 -0.05865,-0.05861 -0.08717,-0.136767 -0.02705,-0.07815 -0.02705,-0.169831 0,-0.226943 0.168332,-0.354692 0.169826,-0.129252 0.500478,-0.129252 h 0.312612 v -0.132256 q 0,-0.133761 -0.0857,-0.213416 -0.0857,-0.08116 -0.26151,-0.08116 -0.127749,0 -0.252493,0.02855 -0.123242,0.02855 -0.255499,0.08116 v -0.23596 q 0.04963,-0.01803 0.109716,-0.03456 0.06165,-0.01803 0.129253,-0.03157 0.06767,-0.01353 0.141274,-0.02104 0.07368,-0.009 0.148787,-0.009 0.136766,0 0.246483,0.03006 0.109717,0.03005 0.184862,0.09168 0.07668,0.06162 0.117222,0.154802 0.04062,0.09318 0.04062,0.219429 v 1.040028 z m -0.0286,-0.686839 h -0.332147 q -0.09769,0 -0.168332,0.01953 -0.07067,0.01954 -0.115719,0.05561 -0.04508,0.03607 -0.06767,0.08717 -0.02104,0.0496 -0.02104,0.11272 0,0.04359 0.01357,0.08416 0.01357,0.03908 0.04354,0.07064 0.03006,0.03005 0.07814,0.0481 0.04809,0.01803 0.117231,0.01803 0.09018,0 0.205908,-0.05411 0.117231,-0.05561 0.246483,-0.17434 z"
       id="path10808"
       style="font-size:5.08662px;line-height:1.25;font-family:consolas;-inkscape-font-specification:consolas;fill:#000080;stroke-width:0.0769504" />
    <path
       d="m 95.72887,27.730366 0.162313,-0.166826 1.009965,0.843145 -1.009965,0.843145 -0.162313,-0.165323 0.819093,-0.674816 z"
       id="path10810"
       style="font-size:5.08662px;line-height:1.25;font-family:consolas;-inkscape-font-specification:consolas;stroke-width:0.0769504" />
    <text
       xml:space="preserve"
       style="font-style:normal;font-weight:normal;font-size:3.52778px;line-height:1.25;font-family:sans-serif;fill:#000000;fill-opacity:1;stroke:none;stroke-width:0.264583"
       x="17.613214"
       y="14.961871"
       id="text13511"><tspan
         sodipodi:role="line"
         id="tspan13509"
         style="font-size:3.52778px;text-align:center;text-anchor:middle;stroke-width:0.264583"
         x="17.613214"
         y="14.961871">öffnendes</tspan><tspan
         sodipodi:role="line"
         style="font-size:3.52778px;text-align:center;text-anchor:middle;stroke-width:0.264583"
         x="17.613214"
         y="19.371595"
         id="tspan40193">Tag</tspan></text>
    <text
       xml:space="preserve"
       style="font-style:normal;font-weight:normal;font-size:3.52778px;line-height:1.25;font-family:sans-serif;fill:#000000;fill-opacity:1;stroke:none;stroke-width:0.264583"
       x="6.4863634"
       y="39.547932"
       id="text13511-51"><tspan
         sodipodi:role="line"
         id="tspan13509-1"
         style="font-size:3.52778px;stroke-width:0.264583"
         x="6.4863634"
         y="39.547932">Tag-Name</tspan></text>
    <text
       xml:space="preserve"
       style="font-style:normal;font-weight:normal;font-size:3.52778px;line-height:1.25;font-family:sans-serif;fill:#000000;fill-opacity:1;stroke:none;stroke-width:0.264583"
       x="44.714493"
       y="39.547932"
       id="text13511-51-3"><tspan
         sodipodi:role="line"
         id="tspan13509-1-8"
         style="font-size:3.52778px;stroke-width:0.264583"
         x="44.714493"
         y="39.547932">Attribut-Name</tspan></text>
    <text
       xml:space="preserve"
       style="font-style:normal;font-weight:normal;font-size:3.52778px;line-height:1.25;font-family:sans-serif;fill:#000000;fill-opacity:1;stroke:none;stroke-width:0.264583"
       x="85.507965"
       y="14.961871"
       id="text13511-5"><tspan
         sodipodi:role="line"
         id="tspan13509-3"
         style="font-size:3.52778px;text-align:center;text-anchor:middle;stroke-width:0.264583"
         x="85.507965"
         y="14.961871">schließendes</tspan><tspan
         sodipodi:role="line"
         style="font-size:3.52778px;text-align:center;text-anchor:middle;stroke-width:0.264583"
         x="85.507965"
         y="19.371595"
         id="tspan47751">Tag</tspan></text>
    <text
       xml:space="preserve"
       style="font-style:normal;font-weight:normal;font-size:3.52778px;line-height:1.25;font-family:sans-serif;fill:#000000;fill-opacity:1;stroke:none;stroke-width:0.264583"
       x="59.968861"
       y="19.344376"
       id="text13511-5-6"><tspan
         sodipodi:role="line"
         id="tspan13509-3-8"
         style="font-size:3.52778px;stroke-width:0.264583"
         x="59.968861"
         y="19.344376">Inhalt</tspan></text>
    <path
       style="fill:none;stroke:#000000;stroke-width:0.23779px;stroke-linecap:butt;stroke-linejoin:miter;stroke-opacity:1"
       d="m 18.05219,20.40638 v 4.689811"
       id="path23836"
       sodipodi:nodetypes="cc" />
    <path
       style="fill:none;stroke:#000000;stroke-width:0.23779px;stroke-linecap:butt;stroke-linejoin:miter;stroke-opacity:1"
       d="m 8.1791119,31.481542 4.0895561,4.449249"
       id="path23836-5"
       sodipodi:nodetypes="cc" />
    <path
       style="fill:none;stroke:#000000;stroke-width:0.264583px;stroke-linecap:butt;stroke-linejoin:miter;stroke-opacity:1"
       d="m 65.197175,20.406371 14.080866,4.68982"
       id="path24255"
       sodipodi:nodetypes="cc" />
    <path
       style="fill:none;stroke:#000000;stroke-width:0.264583px;stroke-linecap:butt;stroke-linejoin:miter;stroke-opacity:1"
       d="m 87.275479,20.406371 6.659142,4.689819"
       id="path24257"
       sodipodi:nodetypes="cc" />
    <path
       id="rect27706"
       style="fill:none;fill-rule:evenodd;stroke:#000000;stroke-width:0.2;stroke-linecap:round;stop-color:#000000"
       d="m 6.3894973,26.025771 v -0.92958 l 67.8073467,0 v 0.92958"
       sodipodi:nodetypes="cccc" />
    <path
       id="rect27706-4"
       style="fill:none;fill-rule:evenodd;stroke:#000000;stroke-width:0.2;stroke-linecap:round;stop-color:#000000"
       d="m 7.3426702,30.551951 v 0.92958 h 1.6372436 v -0.92958"
       sodipodi:nodetypes="cccc" />
    <path
       id="rect27706-4-0"
       style="fill:none;fill-rule:evenodd;stroke:#000000;stroke-width:0.2;stroke-linecap:round;stop-color:#000000"
       d="m 48.256121,30.551951 v 0.92958 h 9.844718 v -0.92958"
       sodipodi:nodetypes="cccc" />
    <path
       id="rect27706-4-0-7"
       style="fill:none;fill-rule:evenodd;stroke:#000000;stroke-width:0.2;stroke-linecap:round;stop-color:#000000"
       d="m 61.239667,30.551951 v 0.92958 h 10.567657 v -0.92958"
       sodipodi:nodetypes="cccc" />
    <path
       id="rect27706-8"
       style="fill:none;fill-rule:evenodd;stroke:#000000;stroke-width:0.2;stroke-linecap:round;stop-color:#000000"
       d="m 75.255178,26.025771 v -0.92958 l 15.003971,0 v 0.92958"
       sodipodi:nodetypes="cccc" />
    <path
       id="rect27706-8-9"
       style="fill:none;fill-rule:evenodd;stroke:#000000;stroke-width:0.2;stroke-linecap:round;stop-color:#000000"
       d="m 91.317483,26.025771 v -0.92958 l 5.261222,0 v 0.92958"
       sodipodi:nodetypes="cccc" />
    <text
       xml:space="preserve"
       style="font-style:normal;font-weight:normal;font-size:3.52778px;line-height:1.25;font-family:sans-serif;fill:#000000;fill-opacity:1;stroke:none;stroke-width:0.264583"
       x="73.42466"
       y="39.547932"
       id="text13511-51-0"><tspan
         sodipodi:role="line"
         id="tspan13509-1-1"
         style="font-size:3.52778px;stroke-width:0.264583"
         x="73.42466"
         y="39.547932">Attribut-Wert</tspan></text>
    <path
       style="fill:none;stroke:#000000;stroke-width:0.23779px;stroke-linecap:butt;stroke-linejoin:miter;stroke-opacity:1"
       d="m 54.017942,31.481531 3.401767,4.44926"
       id="path23836-5-4"
       sodipodi:nodetypes="cc" />
    <path
       id="rect27706-4-0-1"
       style="fill:none;fill-rule:evenodd;stroke:#000000;stroke-width:0.2;stroke-linecap:round;stop-color:#000000"
       d="m 11.173647,30.551951 v 0.92958 l 34.764821,0 v -0.92958"
       sodipodi:nodetypes="cccc" />
    <path
       style="fill:none;stroke:#000000;stroke-width:0.23779px;stroke-linecap:butt;stroke-linejoin:miter;stroke-opacity:1"
       d="m 27.822066,31.481531 3.401767,4.44926"
       id="path23836-5-4-9"
       sodipodi:nodetypes="cc" />
    <path
       style="fill:none;stroke:#000000;stroke-width:0.23779px;stroke-linecap:butt;stroke-linejoin:miter;stroke-opacity:1"
       d="m 67.958794,31.481542 15.826669,4.449249"
       id="path23836-5-3"
       sodipodi:nodetypes="cc" />
    <text
       xml:space="preserve"
       style="font-style:normal;font-weight:normal;font-size:3.52778px;line-height:1.25;font-family:sans-serif;fill:#000000;fill-opacity:1;stroke:none;stroke-width:0.264583"
       x="26.258308"
       y="39.547932"
       id="text13511-51-3-0"><tspan
         sodipodi:role="line"
         id="tspan13509-1-8-2"
         style="font-size:3.52778px;stroke-width:0.264583"
         x="26.258308"
         y="39.547932">Attribut</tspan></text>
  </g>
</svg>
